<?xml version="1.0" encoding="utf-8"?>
<!-- Generated by IcoMoon.io -->
<!DOCTYPE svg PUBLIC "-//W3C//DTD SVG 1.1//EN" "http://www.w3.org/Graphics/SVG/1.1/DTD/svg11.dtd">
<svg version="1.1" xmlns="http://www.w3.org/2000/svg" xmlns:xlink="http://www.w3.org/1999/xlink" width="18" height="18" viewBox="0 0 18 18">
<g>
</g>
	<path d="M12.914 11.837l-2.482-2.837 2.482-2.837c0.422-0.422 0.422-1.106 0-1.527-0.422-0.421-1.106-0.421-1.527 0l-2.387 2.728-2.386-2.727c-0.422-0.422-1.106-0.422-1.527 0-0.421 0.422-0.421 1.106 0 1.527l2.481 2.836-2.482 2.837c-0.421 0.422-0.421 1.104 0 1.526 0.422 0.422 1.106 0.422 1.527 0l2.387-2.726 2.386 2.726c0.422 0.422 1.106 0.422 1.527 0s0.422-1.103 0.001-1.526z" fill="#236192" />
</svg>
