<?xml version="1.0" encoding="utf-8"?>
<!-- Generator: Adobe Illustrator 16.0.3, SVG Export Plug-In . SVG Version: 6.00 Build 0)  -->
<!DOCTYPE svg PUBLIC "-//W3C//DTD SVG 1.1//EN" "http://www.w3.org/Graphics/SVG/1.1/DTD/svg11.dtd">
<svg version="1.1" id="Layer_1" xmlns="http://www.w3.org/2000/svg" xmlns:xlink="http://www.w3.org/1999/xlink" x="0px" y="0px"
	 width="353.911px" height="25.018px" viewBox="0 0 353.911 25.018" enable-background="new 0 0 353.911 25.018"
	 xml:space="preserve">
<g>
	<path fill="#009cde" d="M7.596,12.385H3.825v7.377H0V0.165h7.596c4.073,0,6.468,2.78,6.468,6.11S11.669,12.385,7.596,12.385z
		 M7.403,3.578H3.825v5.367h3.578c1.733,0,2.835-1.074,2.835-2.67C10.238,4.679,9.137,3.578,7.403,3.578z"/>
	<path fill="#009cde" d="M24.221,3.578v16.184h-3.825V3.578h-5.12V0.165h14.065v3.413H24.221z"/>
	<path fill="#009cde" d="M37.378,19.926c-2.257,0-3.908-0.742-5.256-2.063c-1.954-1.955-1.982-4.156-1.982-7.9
		c0-3.742,0.028-5.944,1.982-7.898C33.47,0.743,35.121,0,37.378,0c3.66,0,6.469,2.092,7.184,6.193h-3.907
		c-0.386-1.597-1.378-2.78-3.276-2.78c-1.045,0-1.899,0.385-2.449,1.019c-0.716,0.826-0.963,1.789-0.963,5.531
		c0,3.744,0.247,4.707,0.963,5.533c0.55,0.632,1.404,1.018,2.449,1.018c1.898,0,2.918-1.184,3.303-2.779h3.881
		C43.847,17.834,41.012,19.926,37.378,19.926z"/>
	<path fill="#009cde" d="M47.934,5.197c-1.375,0-2.49-1.113-2.49-2.49c0-1.376,1.115-2.49,2.49-2.49c1.377,0,2.491,1.114,2.491,2.49
		C50.425,4.084,49.311,5.197,47.934,5.197z M47.934,0.773c-1.072,0-1.898,0.826-1.898,1.934c0,1.108,0.826,1.934,1.898,1.934
		c1.074,0,1.9-0.825,1.9-1.934C49.834,1.6,49.008,0.773,47.934,0.773z M48.381,4.028l-0.481-1.025h-0.282v1.025h-0.591V1.379h1.08
		c0.536,0,0.88,0.393,0.88,0.833c0,0.364-0.233,0.598-0.488,0.702l0.559,1.114H48.381z M48.03,1.867h-0.413v0.688h0.413
		c0.221,0,0.365-0.158,0.365-0.343C48.396,2.025,48.251,1.867,48.03,1.867z"/>
	<path fill="#009cde" d="M67.514,19.926c-4.018,0-7.21-2.725-7.21-6.881V0.165h3.824v12.743c0,2.257,1.322,3.605,3.386,3.605
		c2.065,0,3.413-1.349,3.413-3.605V0.165h3.798v12.88C74.725,17.201,71.532,19.926,67.514,19.926z"/>
	<path fill="#009cde" d="M86.782,19.762v-8.67c0-1.954-1.239-2.615-2.367-2.615c-1.129,0-2.395,0.661-2.395,2.615v8.67h-3.578V5.422
		h3.495v1.321c0.936-0.991,2.257-1.485,3.578-1.485c1.431,0,2.587,0.467,3.385,1.265c1.156,1.157,1.459,2.505,1.459,4.073v9.166
		H86.782z"/>
	<path fill="#009cde" d="M93.884,2.973V0.055h3.66v2.918H93.884z M93.939,19.762V5.834h3.577v13.928H93.939z"/>
	<path fill="#009cde" d="M107.426,19.762h-2.808l-5.284-14.34h3.771l2.917,8.862l2.891-8.862h3.771L107.426,19.762z"/>
	<path fill="#009cde" d="M117.061,13.707c0,1.871,1.1,3.191,3.137,3.191c1.568,0,2.34-0.468,3.248-1.348l2.174,2.119
		c-1.458,1.486-2.862,2.256-5.449,2.256c-3.385,0-6.633-1.541-6.633-7.348c0-4.679,2.531-7.32,6.247-7.32
		c3.991,0,6.248,2.861,6.248,6.935v1.515H117.061z M122.18,9.716c-0.386-0.854-1.184-1.486-2.396-1.486
		c-1.211,0-2.009,0.633-2.394,1.486c-0.248,0.522-0.304,0.908-0.33,1.54h5.448C122.482,10.624,122.427,10.238,122.18,9.716z"/>
	<path fill="#009cde" d="M136.85,9.33c-0.551-0.55-1.019-0.854-1.899-0.854c-1.101,0-2.312,0.826-2.312,2.643v8.643h-3.577V5.422
		h3.494v1.377c0.688-0.826,2.065-1.541,3.606-1.541c1.403,0,2.395,0.357,3.385,1.348L136.85,9.33z"/>
	<path fill="#009cde" d="M145.74,19.926c-2.257,0-4.265-0.247-6.109-2.063l2.34-2.341c1.155,1.185,2.724,1.349,3.825,1.349
		c1.239,0,2.532-0.412,2.532-1.486c0-0.715-0.358-1.211-1.514-1.32l-2.313-0.221c-2.531-0.247-4.128-1.376-4.128-4.019
		c0-2.999,2.614-4.567,5.532-4.567c2.257,0,4.101,0.412,5.477,1.678l-2.201,2.229c-0.826-0.742-2.064-0.963-3.331-0.963
		c-1.431,0-2.036,0.661-2.036,1.377c0,0.715,0.412,1.128,1.486,1.238l2.257,0.221c2.834,0.274,4.266,1.761,4.266,4.211
		C151.823,18.413,149.126,19.926,145.74,19.926z"/>
	<path fill="#009cde" d="M154.493,2.973V0.055h3.661v2.918H154.493z M154.549,19.762V5.834h3.578v13.928H154.549z"/>
	<path fill="#009cde" d="M166.329,19.762c-2.918,0-4.156-2.064-4.156-4.102V8.56h-1.513V5.834h1.513V1.596h3.578v4.238h2.532V8.56
		h-2.532v6.881c0,0.825,0.386,1.293,1.238,1.293h1.294v3.028H166.329z"/>
	<path fill="#009cde" d="M176.596,22.073c-0.303,0.799-0.633,1.403-1.073,1.844c-0.825,0.825-1.899,1.101-3.083,1.101h-1.403v-3.219
		h0.825c1.019,0,1.433-0.249,1.789-1.294l0.606-1.762l-4.899-13.321h3.771l2.973,8.862l2.862-8.862h3.771L176.596,22.073z"/>
	<path fill="#009cde" d="M198.808,11.697h-5.201v8.064h-2.092V0.165h7.293c3.552,0,6.056,2.257,6.056,5.753
		C204.863,9.413,202.359,11.697,198.808,11.697z M198.644,2.037h-5.037v7.788h5.037c2.449,0,4.128-1.321,4.128-3.907
		C202.771,3.33,201.093,2.037,198.644,2.037z"/>
	<path fill="#009cde" d="M215.379,8.807c-0.743-0.742-1.294-0.99-2.341-0.99c-1.981,0-3.247,1.568-3.247,3.633v8.313h-1.981V6.221
		h1.981v1.65c0.742-1.128,2.229-1.816,3.799-1.816c1.293,0,2.283,0.303,3.246,1.266L215.379,8.807z"/>
	<path fill="#009cde" d="M219.121,13.514c0,2.973,1.377,4.679,3.991,4.679c1.569,0,2.478-0.468,3.551-1.541l1.349,1.183
		c-1.377,1.377-2.67,2.092-4.954,2.092c-3.606,0-5.918-2.146-5.918-6.935c0-4.403,2.12-6.937,5.56-6.937
		c3.523,0,5.56,2.505,5.56,6.578v0.881H219.121z M225.865,9.77c-0.579-1.237-1.706-2.036-3.166-2.036
		c-1.459,0-2.587,0.799-3.164,2.036c-0.331,0.717-0.358,1.156-0.414,2.258h7.185C226.223,10.926,226.195,10.486,225.865,9.77z"/>
	<path fill="#009cde" d="M237.041,19.926c-3.414,0-6.001-2.312-6.001-6.935c0-4.624,2.587-6.937,6.001-6.937
		c1.87,0,3.055,0.496,4.458,2.01L240.15,9.33c-1.019-1.129-1.816-1.514-3.109-1.514c-1.322,0-2.423,0.522-3.139,1.541
		c-0.633,0.881-0.881,1.927-0.881,3.634c0,1.706,0.248,2.752,0.881,3.633c0.716,1.019,1.816,1.54,3.139,1.54
		c1.293,0,2.091-0.412,3.109-1.54l1.349,1.293C240.096,19.432,238.911,19.926,237.041,19.926z"/>
	<path fill="#009cde" d="M244.473,2.367V0.138h2.229v2.229H244.473z M244.582,19.762V6.221h1.982v13.541H244.582z"/>
	<path fill="#009cde" d="M255.097,19.926c-2.312,0-4.101-0.522-5.56-1.954l1.322-1.32c1.045,1.101,2.531,1.568,4.21,1.568
		c2.257,0,3.605-0.798,3.605-2.394c0-1.211-0.661-1.845-2.257-1.982l-2.229-0.192c-2.642-0.221-4.046-1.376-4.046-3.633
		c0-2.478,2.064-3.964,4.982-3.964c1.953,0,3.632,0.468,4.871,1.459l-1.294,1.293c-0.964-0.742-2.202-1.073-3.605-1.073
		c-1.981,0-3.027,0.826-3.027,2.229c0,1.211,0.743,1.816,2.422,1.982l2.119,0.191c2.367,0.221,3.991,1.102,3.991,3.661
		C260.602,18.413,258.399,19.926,255.097,19.926z"/>
	<path fill="#009cde" d="M263.686,2.367V0.138h2.229v2.229H263.686z M263.795,19.762V6.221h1.981v13.541H263.795z"/>
	<path fill="#009cde" d="M278.74,18.385c-0.936,0.965-2.229,1.541-3.881,1.541s-2.944-0.576-3.881-1.541
		c-1.376-1.402-1.651-3.302-1.651-5.394s0.275-4.019,1.651-5.396c0.937-0.963,2.229-1.541,3.881-1.541s2.945,0.578,3.881,1.541
		c1.376,1.377,1.651,3.304,1.651,5.396S280.116,16.982,278.74,18.385z M277.337,8.807c-0.66-0.66-1.515-0.99-2.478-0.99
		s-1.789,0.33-2.449,0.99c-0.991,0.992-1.102,2.643-1.102,4.185c0,1.513,0.084,3.165,1.102,4.183c0.66,0.66,1.486,0.99,2.449,0.99
		s1.817-0.33,2.478-0.99c0.99-1.018,1.072-2.67,1.072-4.183C278.409,11.449,278.327,9.799,277.337,8.807z"/>
	<path fill="#009cde" d="M292.613,19.762v-8.34c0-2.395-1.293-3.605-3.331-3.605c-2.036,0-3.357,1.239-3.357,3.605v8.34h-1.981
		V6.221h1.981v1.486c0.963-1.102,2.285-1.652,3.798-1.652c1.46,0,2.643,0.441,3.468,1.266c0.964,0.937,1.404,2.202,1.404,3.771v8.67
		H292.613z"/>
	<path fill="#009cde" d="M305.247,19.762V0.165h2.092V17.89h10.019v1.872H305.247z"/>
	<path fill="#009cde" d="M335.028,19.762V4.871l-5.367,11.807h-1.789l-5.448-11.807v14.891h-2.092V0.165h2.092l6.385,13.899
		l6.22-13.899h2.093v19.597H335.028z"/>
	<path fill="#009cde" d="M347.141,19.926c-2.917,0-4.872-0.742-6.688-2.586l1.404-1.404c1.624,1.623,3.137,2.119,5.34,2.119
		c2.89,0,4.65-1.321,4.65-3.633c0-1.046-0.303-1.872-0.964-2.449c-0.605-0.551-1.155-0.743-2.559-0.964l-2.284-0.329
		c-1.542-0.248-2.697-0.717-3.578-1.486c-0.991-0.881-1.514-2.092-1.514-3.689c0-3.33,2.395-5.504,6.274-5.504
		c2.505,0,4.156,0.661,5.835,2.147l-1.349,1.349c-1.183-1.129-2.531-1.707-4.568-1.707c-2.643,0-4.156,1.459-4.156,3.66
		c0,0.964,0.276,1.762,0.881,2.284c0.605,0.523,1.541,0.854,2.56,1.019l2.284,0.357c1.817,0.275,2.67,0.606,3.551,1.404
		c1.046,0.908,1.651,2.229,1.651,3.854C353.911,17.808,351.241,19.926,347.141,19.926z"/>
</g>
</svg>
