<?xml version="1.0" encoding="utf-8"?>
<!-- Generated by IcoMoon.io -->
<!DOCTYPE svg PUBLIC "-//W3C//DTD SVG 1.1//EN" "http://www.w3.org/Graphics/SVG/1.1/DTD/svg11.dtd">

<svg version="1.1" xmlns="http://www.w3.org/2000/svg" xmlns:xlink="http://www.w3.org/1999/xlink" width="510" height="32" viewBox="0 0 510 32">
<defs>
<g id="icon-sitemap">
	<path class="path1" d="M24 27h-3c-0.553 0-1-0.447-1-1v-2c0-0.553 0.447-1 1-1h2v-6h-7v6h1c0.552 0 1 0.447 1 1v2c0 0.553-0.448 1-1 1h-3c-0.553 0-1-0.447-1-1v-2c0-0.553 0.447-1 1-1h1v-6h-7v6h2c0.552 0 1 0.447 1 1v2c0 0.553-0.448 1-1 1h-3c-0.553 0-1-0.447-1-1v-2c0-0.553 0.447-1 1-1v-7h8v-7h-1c-0.553 0-1-0.448-1-1v-2c0-0.552 0.447-1 1-1h3c0.552 0 1 0.448 1 1v2c0 0.552-0.448 1-1 1h-1v7h8v7c0.552 0 1 0.447 1 1v2c0 0.553-0.448 1-1 1z" />
</g>
<g id="icon-forward">
	<path class="path1" d="M18.84 19.181v6.971l11.56-10.704-11.56-10.328v6.186c-14.040 0-17.24 15.574-17.24 15.574 3.973-7.024 9.619-7.699 17.24-7.699z" />
</g>
<g id="icon-export">
	<path class="path1" d="M24 25.28h-20.8v-14.4h4.152c0 0 1.102-1.434 3.472-3.2h-9.224c-0.883 0-1.6 0.717-1.6 1.6v17.6c0 0.885 0.717 1.6 1.6 1.6h24c0.885 0 1.6-0.715 1.6-1.6v-5.994l-3.2 2.632v1.762zM21.379 14.16v5.68l10.621-8.322-10.621-7.998v5.008c-12.899 0.002-12.899 12.752-12.899 12.752 3.651-5.997 5.898-7.12 12.899-7.12z" />
</g>
<g id="icon-arrow-down">
	<path class="path1" d="M23.36 9.602l-14.72-0.002 7.36 12.8z" />
</g>
<g id="icon-arrow-down2">
	<path class="path1" d="M21.469 12.162c0.434-0.429 1.134-0.429 1.566 0 0.434 0.429 0.434 1.122 0 1.55l-6.251 6.128c-0.434 0.429-1.134 0.429-1.566 0l-6.253-6.128c-0.432-0.429-0.432-1.122 0-1.55 0.434-0.429 1.133-0.429 1.566 0l5.469 5.024 5.469-5.024z" />
</g>
<g id="icon-share">
	<path class="path1" d="M28 26c0 1.106-0.894 2-2 2h-20c-1.104 0-2-0.894-2-2v-20c0-1.106 0.896-2 2-2h6l6.666-4h-14.666c-2.208 0-4 1.792-4 4v24c0 2.208 1.792 4 4 4h24c2.208 0 4-1.792 4-4v-16.5l-4 3v11.5zM8.028 19.428c-0.032 0.348-0.032 0.55-0.032 0.55 0-0.194 0.026-0.358 0.032-0.55zM21.968 3.92c-0.022 0.204-0.032 0.166-0.034-0.012-0.988-0.008-13.424 0.982-13.944 16.274 0.148 0.768 2.682-10.098 14.004-12.342 0.006 0.16 0.006 4.16 0.006 4.16l10-6-10-6c0.034-0.018-0.076 3.18-0.064 3.908 0.074 0.002 0.1 0.006 0.032 0.012z" />
</g>
<g id="icon-expand">
	<path class="path1" d="M32 30.5v-29c0-0.827-0.673-1.5-1.5-1.5h-29c-0.827 0-1.5 0.673-1.5 1.5v9c0 0.276 0.224 0.5 0.5 0.5s0.5-0.224 0.5-0.5v-9c0-0.276 0.225-0.5 0.5-0.5h29c0.275 0 0.5 0.224 0.5 0.5v29c0 0.276-0.225 0.5-0.5 0.5h-9c-0.276 0-0.5 0.224-0.5 0.5s0.224 0.5 0.5 0.5h9c0.827 0 1.5-0.673 1.5-1.5zM1.5 13c-0.827 0-1.5 0.673-1.5 1.5v16c0 0.827 0.673 1.5 1.5 1.5h16c0.827 0 1.5-0.673 1.5-1.5v-16.793l7-7v6.793c0 0.276 0.224 0.5 0.5 0.5s0.5-0.224 0.5-0.5v-8c0-0.276-0.224-0.5-0.5-0.5h-8c-0.276 0-0.5 0.224-0.5 0.5s0.224 0.5 0.5 0.5h6.792l-7 7h-16.792zM18 30.5c0 0.276-0.225 0.5-0.5 0.5h-16c-0.275 0-0.5-0.224-0.5-0.5v-16c0-0.276 0.225-0.5 0.5-0.5h16.5v16.5z" />
</g>
<g id="icon-redo">
	<path class="path1" d="M18 7.762v-7.762l12 12-12 12v-7.932c-13.961-0.328-13.362 9.493-9.808 15.932-8.772-9.482-6.909-24.674 9.808-24.238z" />
</g>
<g id="icon-share-square-o">
	<path class="path1" d="M25.143 17.661v4.625q0 2.125-1.509 3.634t-3.634 1.509h-14.857q-2.125 0-3.634-1.509t-1.509-3.634v-14.857q0-2.125 1.509-3.634t3.634-1.509h4.554q0.232 0 0.402 0.17t0.17 0.402q0 0.482-0.464 0.571-1.375 0.464-2.375 1.071-0.179 0.071-0.286 0.071h-2q-1.179 0-2.018 0.839t-0.839 2.018v14.857q0 1.179 0.839 2.018t2.018 0.839h14.857q1.179 0 2.018-0.839t0.839-2.018v-3.821q0-0.339 0.321-0.518 0.5-0.232 0.964-0.661 0.286-0.286 0.625-0.143 0.375 0.161 0.375 0.518zM29.375 8.804l-6.857 6.857q-0.321 0.339-0.804 0.339-0.214 0-0.446-0.089-0.696-0.304-0.696-1.054v-3.429h-2.857q-5.768 0-7.821 2.339-2.125 2.446-1.321 8.446 0.054 0.411-0.357 0.607-0.143 0.036-0.214 0.036-0.286 0-0.464-0.232-0.179-0.25-0.375-0.554t-0.705-1.223-0.884-1.777-0.688-2.036-0.313-2.179q0-0.875 0.063-1.625t0.25-1.607 0.5-1.571 0.839-1.455 1.223-1.321 1.687-1.098 2.223-0.866 2.848-0.545 3.509-0.196h2.857v-3.429q0-0.75 0.696-1.054 0.232-0.089 0.446-0.089 0.464 0 0.804 0.339l6.857 6.857q0.339 0.339 0.339 0.804t-0.339 0.804z" />
</g>
<g id="icon-chevron-circle-down">
	<path class="path1" d="M14.518 23.196l8.107-8.107q0.339-0.339 0.339-0.804t-0.339-0.804l-1.821-1.821q-0.339-0.339-0.804-0.339t-0.804 0.339l-5.482 5.482-5.482-5.482q-0.339-0.339-0.804-0.339t-0.804 0.339l-1.821 1.821q-0.339 0.339-0.339 0.804t0.339 0.804l8.107 8.107q0.339 0.339 0.804 0.339t0.804-0.339zM27.429 16q0 3.732-1.839 6.884t-4.991 4.991-6.884 1.839-6.884-1.839-4.991-4.991-1.839-6.884 1.839-6.884 4.991-4.991 6.884-1.839 6.884 1.839 4.991 4.991 1.839 6.884z" />
</g>
<g id="icon-export-outline">
	<path class="path1" d="M30.281 13.061c-0.055-0.055-5.407-5.461-7.976-8.195-0.56-0.552-1.332-0.867-2.115-0.867-1.576 0-2.857 1.195-2.857 2.667h-10.667c-0.737 0-1.333 0.597-1.333 1.333v18.667c0 0.736 0.596 1.333 1.333 1.333h18.667c0.737 0 1.333-0.597 1.333-1.333v-8.060c1.912-1.948 3.584-3.639 3.615-3.668 0.516-0.52 0.516-1.357 0-1.877zM20.372 21.255c-0.029 0.036-0.087 0.079-0.181 0.079-0.099 0-0.161-0.031-0.192-0.053v-5.28h-1.333c-2.361 0.045-4.448 0.907-6.337 2.611 0.573-2.953 2.133-6.611 6.337-6.611h1.333v-5.277c0.037-0.028 0.095-0.056 0.192-0.056 0.12 0 0.203 0.067 0.205 0.067 1.915 2.033 5.401 5.583 7.063 7.267-0.337 0.343-5.789 5.896-7.087 7.255zM8 25.333v-16h10.667c0 0.464 0 0.927 0 1.333-6.213 0-8 6.495-8 11.333v0.667c2.255-3.437 4.8-5.271 8-5.333 0 1.393 0 3.784 0 4 0 0.735 0.683 1.333 1.524 1.333 0.485 0 0.901-0.211 1.177-0.521 0.719-0.753 1.656-1.721 2.635-2.724v5.912h-16.003z" />
</g>
</defs>

<g fill="#000000">
	<use xlink:href="#icon-sitemap" transform="translate(0 0)"></use>
	<use xlink:href="#icon-forward" transform="translate(48 0)"></use>
	<use xlink:href="#icon-export" transform="translate(96 0)"></use>
	<use xlink:href="#icon-arrow-down" transform="translate(144 0)"></use>
	<use xlink:href="#icon-arrow-down2" transform="translate(192 0)"></use>
	<use xlink:href="#icon-share" transform="translate(240 0)"></use>
	<use xlink:href="#icon-expand" transform="translate(288 0)"></use>
	<use xlink:href="#icon-redo" transform="translate(336 0)"></use>
	<use xlink:href="#icon-share-square-o" transform="translate(384 0)"></use>
	<use xlink:href="#icon-chevron-circle-down" transform="translate(430 0)"></use>
	<use xlink:href="#icon-export-outline" transform="translate(478 0)"></use>
</g>

</svg>
